<?xml version="1.0" encoding="utf-8"?>
<!-- Generator: Adobe Illustrator 16.0.3, SVG Export Plug-In . SVG Version: 6.00 Build 0)  -->
<!DOCTYPE svg PUBLIC "-//W3C//DTD SVG 1.1//EN" "http://www.w3.org/Graphics/SVG/1.1/DTD/svg11.dtd">
<svg version="1.1" id="Layer_2" xmlns="http://www.w3.org/2000/svg" xmlns:xlink="http://www.w3.org/1999/xlink" x="0px" y="0px"
	 width="300px" height="300px" viewBox="0 0 300 300" enable-background="new 0 0 300 300" xml:space="preserve">
<rect x="148.5" y="133.5" fill="#BDB9B5" width="3" height="33"/>
<rect x="133.5" y="148.5" fill="#BDB9B5" width="33" height="3"/>
<g>
	<path fill="#8B8989" d="M87.609,232.062c0,0.59-0.094,1.127-0.281,1.609s-0.451,0.896-0.792,1.242
		c-0.341,0.345-0.75,0.609-1.227,0.801c-0.477,0.188-1.004,0.283-1.584,0.283h-2.948v-7.882h2.948c0.58,0,1.107,0.095,1.584,0.28
		c0.477,0.189,0.886,0.457,1.227,0.807c0.341,0.346,0.605,0.762,0.792,1.245C87.515,230.936,87.609,231.473,87.609,232.062z
		 M86.514,232.062c0-0.483-0.066-0.916-0.198-1.299c-0.132-0.383-0.319-0.703-0.561-0.97c-0.242-0.265-0.536-0.466-0.88-0.604
		c-0.345-0.141-0.728-0.209-1.15-0.209H81.85v6.154h1.875c0.422,0,0.805-0.07,1.15-0.21c0.344-0.14,0.638-0.34,0.88-0.603
		c0.242-0.264,0.429-0.584,0.561-0.967C86.448,232.979,86.514,232.546,86.514,232.062z"/>
	<path fill="#8B8989" d="M88.907,236v-5.57h0.561c0.106,0,0.18,0.021,0.22,0.062c0.041,0.037,0.068,0.107,0.083,0.209l0.066,0.867
		c0.191-0.389,0.426-0.69,0.707-0.908c0.28-0.221,0.609-0.328,0.987-0.328c0.154,0,0.293,0.02,0.418,0.053
		c0.125,0.035,0.24,0.083,0.346,0.146l-0.126,0.729c-0.026,0.093-0.083,0.14-0.17,0.14c-0.051,0-0.13-0.02-0.236-0.053
		c-0.106-0.035-0.255-0.054-0.446-0.054c-0.341,0-0.626,0.101-0.855,0.297c-0.229,0.198-0.421,0.486-0.575,0.863V236H88.907z"/>
	<path fill="#8B8989" d="M97.223,236h-0.435c-0.095,0-0.172-0.016-0.231-0.044c-0.059-0.029-0.097-0.093-0.116-0.188l-0.11-0.517
		c-0.146,0.132-0.29,0.25-0.429,0.354c-0.14,0.104-0.286,0.189-0.44,0.265c-0.154,0.071-0.318,0.125-0.492,0.162
		c-0.174,0.036-0.368,0.055-0.58,0.055c-0.216,0-0.419-0.03-0.608-0.091c-0.189-0.061-0.353-0.15-0.492-0.273
		c-0.139-0.121-0.25-0.272-0.333-0.461c-0.083-0.186-0.124-0.404-0.124-0.658c0-0.222,0.061-0.435,0.182-0.639
		s0.316-0.385,0.586-0.543s0.622-0.288,1.059-0.39c0.436-0.103,0.97-0.151,1.601-0.151v-0.438c0-0.438-0.093-0.768-0.278-0.988
		c-0.185-0.223-0.459-0.335-0.822-0.335c-0.238,0-0.439,0.03-0.602,0.091c-0.164,0.061-0.305,0.129-0.424,0.204
		c-0.119,0.075-0.222,0.144-0.308,0.203c-0.086,0.062-0.171,0.091-0.255,0.091c-0.066,0-0.124-0.018-0.173-0.053
		c-0.05-0.034-0.089-0.077-0.118-0.129l-0.176-0.313c0.308-0.297,0.64-0.519,0.996-0.665s0.75-0.221,1.183-0.221
		c0.312,0,0.588,0.052,0.831,0.154c0.242,0.103,0.445,0.246,0.61,0.429c0.165,0.185,0.29,0.405,0.374,0.666s0.126,0.546,0.126,0.856
		V236H97.223z M94.682,235.4c0.172,0,0.33-0.021,0.473-0.053c0.143-0.035,0.278-0.084,0.404-0.147s0.247-0.144,0.363-0.234
		c0.116-0.091,0.228-0.196,0.338-0.313v-1.146c-0.451,0-0.834,0.028-1.149,0.086c-0.315,0.061-0.572,0.135-0.77,0.227
		c-0.198,0.093-0.342,0.201-0.432,0.326c-0.09,0.125-0.135,0.266-0.135,0.42c0,0.146,0.024,0.272,0.072,0.383
		c0.047,0.104,0.112,0.193,0.192,0.263s0.176,0.118,0.286,0.149C94.434,235.387,94.553,235.4,94.682,235.4z"/>
	<path fill="#8B8989" d="M100.583,230.335c0.242,0,0.468,0.026,0.679,0.08c0.21,0.053,0.402,0.131,0.575,0.233h1.512v0.363
		c0,0.118-0.077,0.195-0.231,0.229l-0.632,0.088c0.125,0.238,0.187,0.505,0.187,0.798c0,0.271-0.052,0.519-0.157,0.74
		c-0.104,0.222-0.25,0.409-0.435,0.567c-0.185,0.156-0.405,0.277-0.66,0.361c-0.255,0.085-0.534,0.127-0.838,0.127
		c-0.261,0-0.506-0.029-0.737-0.094c-0.117,0.076-0.206,0.156-0.267,0.244s-0.091,0.173-0.091,0.256c0,0.137,0.053,0.238,0.16,0.312
		c0.106,0.068,0.248,0.118,0.423,0.148c0.175,0.029,0.376,0.046,0.6,0.046s0.452,0,0.685,0s0.461,0.021,0.685,0.062
		c0.223,0.041,0.423,0.107,0.599,0.201c0.176,0.094,0.317,0.223,0.424,0.385c0.106,0.162,0.159,0.375,0.159,0.636
		c0,0.239-0.06,0.476-0.179,0.7c-0.119,0.227-0.291,0.429-0.514,0.604c-0.224,0.178-0.497,0.317-0.819,0.426
		c-0.323,0.104-0.688,0.156-1.095,0.156c-0.407,0-0.764-0.041-1.07-0.121c-0.306-0.078-0.56-0.188-0.762-0.322
		c-0.202-0.139-0.353-0.293-0.454-0.474c-0.101-0.178-0.151-0.362-0.151-0.56c0-0.274,0.087-0.512,0.261-0.701
		s0.414-0.348,0.718-0.46c-0.158-0.073-0.283-0.173-0.376-0.294c-0.094-0.122-0.141-0.286-0.141-0.491
		c0-0.08,0.015-0.164,0.044-0.25c0.03-0.086,0.075-0.171,0.135-0.255c0.061-0.085,0.135-0.165,0.223-0.242
		c0.088-0.076,0.19-0.146,0.308-0.203c-0.275-0.15-0.49-0.355-0.646-0.611c-0.156-0.254-0.234-0.555-0.234-0.896
		c0-0.271,0.052-0.521,0.157-0.737c0.104-0.225,0.25-0.41,0.438-0.566c0.187-0.155,0.41-0.275,0.668-0.359
		C99.992,230.377,100.275,230.335,100.583,230.335z M102.321,236.283c0-0.143-0.039-0.258-0.116-0.344s-0.181-0.151-0.313-0.198
		c-0.132-0.048-0.284-0.081-0.457-0.104s-0.354-0.033-0.544-0.033s-0.385,0-0.583,0c-0.198,0-0.387-0.022-0.566-0.074
		c-0.209,0.102-0.378,0.223-0.509,0.363c-0.13,0.146-0.195,0.313-0.195,0.512c0,0.125,0.032,0.242,0.097,0.354
		c0.064,0.105,0.162,0.201,0.294,0.28c0.132,0.079,0.298,0.144,0.498,0.188c0.2,0.045,0.435,0.067,0.707,0.067
		c0.264,0,0.5-0.022,0.709-0.071c0.209-0.051,0.386-0.119,0.531-0.209c0.145-0.091,0.256-0.195,0.333-0.318
		C102.283,236.568,102.321,236.434,102.321,236.283z M100.583,233.277c0.198,0,0.373-0.027,0.525-0.082
		c0.152-0.057,0.28-0.133,0.382-0.231c0.103-0.099,0.18-0.217,0.231-0.354c0.051-0.137,0.077-0.289,0.077-0.451
		c0-0.344-0.104-0.612-0.311-0.812c-0.207-0.201-0.508-0.304-0.904-0.304c-0.393,0-0.692,0.103-0.899,0.304
		c-0.207,0.2-0.311,0.475-0.311,0.812c0,0.162,0.027,0.314,0.08,0.451c0.053,0.141,0.131,0.259,0.234,0.354
		c0.103,0.101,0.229,0.177,0.379,0.231C100.217,233.25,100.389,233.277,100.583,233.277z"/>
	<path fill="#8B8989" d="M109.278,228.029c0.29,0,0.554,0.048,0.792,0.142c0.238,0.095,0.445,0.218,0.619,0.371
		s0.312,0.333,0.413,0.536c0.101,0.204,0.159,0.415,0.173,0.636l-0.61,0.121c-0.019,0.003-0.035,0.005-0.05,0.005
		c-0.047,0-0.092-0.013-0.135-0.037c-0.042-0.025-0.072-0.072-0.09-0.139c-0.026-0.096-0.067-0.193-0.124-0.297
		s-0.13-0.196-0.22-0.28c-0.09-0.085-0.198-0.153-0.325-0.209c-0.126-0.056-0.274-0.083-0.443-0.083
		c-0.183,0-0.348,0.029-0.495,0.088c-0.146,0.059-0.272,0.141-0.376,0.245c-0.104,0.104-0.185,0.228-0.242,0.368
		c-0.057,0.143-0.085,0.294-0.085,0.459c0,0.129,0.016,0.252,0.046,0.369c0.031,0.117,0.078,0.234,0.141,0.354
		c0.062,0.119,0.143,0.242,0.242,0.368c0.099,0.127,0.218,0.261,0.357,0.399l2.266,2.305c0.14-0.246,0.25-0.504,0.333-0.773
		c0.083-0.269,0.138-0.539,0.167-0.812c0.007-0.069,0.029-0.124,0.066-0.164c0.037-0.041,0.088-0.062,0.154-0.062h0.605
		c-0.007,0.422-0.075,0.836-0.204,1.242c-0.128,0.405-0.313,0.789-0.556,1.146l1.65,1.672h-0.946c-0.106,0-0.192-0.013-0.258-0.038
		s-0.14-0.079-0.22-0.16l-0.792-0.797c-0.345,0.333-0.742,0.598-1.19,0.792c-0.449,0.194-0.943,0.291-1.482,0.291
		c-0.293,0-0.581-0.05-0.864-0.147c-0.282-0.1-0.534-0.241-0.756-0.433c-0.222-0.188-0.401-0.419-0.537-0.69
		c-0.135-0.271-0.203-0.574-0.203-0.918c0-0.256,0.043-0.5,0.129-0.729s0.206-0.439,0.358-0.635
		c0.152-0.194,0.333-0.369,0.542-0.521c0.209-0.154,0.438-0.287,0.688-0.396c-0.224-0.282-0.389-0.558-0.495-0.825
		s-0.159-0.544-0.159-0.83c0-0.27,0.048-0.52,0.146-0.754c0.097-0.232,0.237-0.438,0.421-0.611c0.183-0.176,0.406-0.312,0.668-0.412
		C108.659,228.082,108.952,228.029,109.278,228.029z M107.095,233.822c0,0.238,0.044,0.447,0.132,0.63
		c0.088,0.181,0.204,0.334,0.346,0.459c0.143,0.125,0.306,0.219,0.49,0.282c0.183,0.062,0.37,0.097,0.561,0.097
		c0.411,0,0.779-0.074,1.105-0.226c0.326-0.149,0.614-0.353,0.863-0.602l-2.326-2.349c-0.389,0.209-0.681,0.459-0.877,0.751
		C107.193,233.159,107.095,233.479,107.095,233.822z"/>
	<path fill="#8B8989" d="M123.292,232.062c0,0.59-0.094,1.127-0.281,1.609s-0.451,0.896-0.792,1.242
		c-0.341,0.345-0.75,0.609-1.227,0.801c-0.477,0.188-1.004,0.283-1.584,0.283h-2.948v-7.882h2.948c0.58,0,1.107,0.095,1.584,0.28
		c0.477,0.189,0.886,0.457,1.227,0.807c0.341,0.346,0.605,0.762,0.792,1.245C123.199,230.936,123.292,231.473,123.292,232.062z
		 M122.198,232.062c0-0.483-0.066-0.916-0.198-1.299s-0.319-0.703-0.561-0.97c-0.242-0.265-0.536-0.466-0.88-0.604
		c-0.345-0.141-0.728-0.209-1.15-0.209h-1.875v6.154h1.875c0.422,0,0.805-0.07,1.15-0.21c0.344-0.14,0.638-0.34,0.88-0.603
		c0.242-0.264,0.429-0.584,0.561-0.967C122.132,232.979,122.198,232.546,122.198,232.062z"/>
	<path fill="#8B8989" d="M124.59,236v-5.57h0.561c0.106,0,0.18,0.021,0.22,0.062c0.041,0.037,0.068,0.107,0.083,0.209l0.066,0.867
		c0.191-0.389,0.426-0.69,0.707-0.908c0.28-0.221,0.609-0.328,0.987-0.328c0.154,0,0.293,0.02,0.418,0.053
		c0.125,0.035,0.24,0.083,0.346,0.146l-0.126,0.729c-0.026,0.093-0.083,0.14-0.17,0.14c-0.051,0-0.13-0.02-0.236-0.053
		c-0.106-0.035-0.255-0.054-0.446-0.054c-0.341,0-0.626,0.101-0.855,0.297c-0.229,0.198-0.421,0.486-0.575,0.863V236H124.59z"/>
	<path fill="#8B8989" d="M131.278,230.341c0.407,0,0.774,0.067,1.103,0.203s0.607,0.328,0.836,0.577
		c0.229,0.25,0.405,0.552,0.528,0.904c0.123,0.354,0.184,0.75,0.184,1.187c0,0.438-0.062,0.836-0.184,1.188
		c-0.123,0.353-0.299,0.649-0.528,0.899c-0.229,0.249-0.508,0.44-0.836,0.574c-0.328,0.134-0.696,0.201-1.103,0.201
		c-0.407,0-0.775-0.067-1.103-0.201c-0.328-0.134-0.607-0.325-0.838-0.574c-0.231-0.25-0.409-0.55-0.534-0.899
		c-0.125-0.354-0.187-0.748-0.187-1.188c0-0.437,0.062-0.832,0.187-1.187c0.125-0.355,0.303-0.654,0.534-0.904
		c0.231-0.249,0.51-0.441,0.838-0.577C130.503,230.408,130.871,230.341,131.278,230.341z M131.278,235.312
		c0.55,0,0.96-0.188,1.232-0.556c0.272-0.366,0.407-0.883,0.407-1.543c0-0.663-0.135-1.181-0.407-1.551
		c-0.272-0.37-0.682-0.558-1.232-0.558c-0.279,0-0.521,0.049-0.726,0.146c-0.206,0.097-0.377,0.229-0.514,0.412
		c-0.138,0.183-0.24,0.397-0.308,0.663c-0.068,0.262-0.102,0.558-0.102,0.888s0.034,0.625,0.102,0.888
		c0.068,0.262,0.17,0.479,0.308,0.655c0.137,0.181,0.309,0.313,0.514,0.41C130.757,235.266,131,235.312,131.278,235.312z"/>
	<path fill="#8B8989" d="M135.139,237.887v-7.457h0.583c0.139,0,0.227,0.066,0.264,0.202l0.083,0.66
		c0.238-0.29,0.511-0.522,0.817-0.698c0.306-0.176,0.659-0.265,1.059-0.265c0.319,0,0.609,0.062,0.869,0.185
		c0.26,0.123,0.482,0.305,0.666,0.545c0.183,0.24,0.324,0.539,0.423,0.896c0.099,0.354,0.148,0.766,0.148,1.229
		c0,0.408-0.055,0.793-0.165,1.146c-0.11,0.354-0.268,0.659-0.473,0.919c-0.206,0.258-0.458,0.462-0.756,0.609
		c-0.298,0.146-0.635,0.224-1.009,0.224c-0.345,0-0.639-0.058-0.883-0.171c-0.244-0.113-0.459-0.274-0.646-0.483v2.466h-0.98
		V237.887L135.139,237.887z M137.62,231.121c-0.319,0-0.599,0.074-0.839,0.221c-0.24,0.146-0.461,0.354-0.663,0.621v2.695
		c0.179,0.242,0.376,0.412,0.591,0.512s0.454,0.148,0.718,0.148c0.517,0,0.915-0.188,1.194-0.559
		c0.278-0.367,0.418-0.896,0.418-1.584c0-0.361-0.032-0.675-0.096-0.936c-0.064-0.262-0.157-0.477-0.278-0.643
		c-0.121-0.168-0.27-0.289-0.446-0.365C138.043,231.16,137.843,231.121,137.62,231.121z"/>
	<path fill="#8B8989" d="M144.967,237.645c-0.033,0.073-0.074,0.133-0.124,0.176c-0.05,0.047-0.126,0.066-0.229,0.066h-0.726
		l1.018-2.211l-2.299-5.246h0.847c0.084,0,0.15,0.021,0.198,0.062c0.047,0.042,0.083,0.089,0.104,0.14l1.49,3.509
		c0.033,0.082,0.062,0.162,0.085,0.242c0.024,0.081,0.045,0.163,0.063,0.248c0.025-0.085,0.051-0.167,0.077-0.248
		c0.026-0.08,0.055-0.162,0.088-0.246l1.447-3.505c0.022-0.06,0.06-0.106,0.113-0.146c0.053-0.039,0.111-0.061,0.173-0.061h0.781
		L144.967,237.645z"/>
	<path fill="#8B8989" d="M151.078,230.341c0.406,0,0.773,0.067,1.104,0.203c0.328,0.136,0.605,0.328,0.836,0.577
		c0.229,0.25,0.404,0.552,0.527,0.904c0.123,0.354,0.184,0.75,0.184,1.187c0,0.438-0.061,0.836-0.184,1.188
		c-0.123,0.352-0.299,0.649-0.527,0.899c-0.229,0.249-0.509,0.44-0.836,0.574c-0.328,0.134-0.697,0.201-1.104,0.201
		c-0.407,0-0.775-0.067-1.103-0.201s-0.607-0.325-0.838-0.574c-0.231-0.25-0.409-0.55-0.534-0.899
		c-0.125-0.354-0.187-0.748-0.187-1.188c0-0.437,0.062-0.832,0.187-1.187c0.125-0.355,0.303-0.654,0.534-0.904
		c0.231-0.249,0.51-0.441,0.838-0.577S150.671,230.341,151.078,230.341z M151.078,235.312c0.55,0,0.961-0.188,1.232-0.556
		c0.271-0.366,0.403-0.883,0.403-1.543c0-0.663-0.135-1.181-0.403-1.551c-0.271-0.37-0.686-0.558-1.232-0.558
		c-0.279,0-0.521,0.049-0.726,0.146c-0.206,0.097-0.377,0.229-0.514,0.412c-0.138,0.183-0.24,0.397-0.308,0.663
		c-0.068,0.262-0.102,0.558-0.102,0.888s0.034,0.625,0.102,0.888c0.068,0.262,0.17,0.479,0.308,0.655
		c0.137,0.181,0.309,0.313,0.514,0.41C150.557,235.266,150.799,235.312,151.078,235.312z"/>
	<path fill="#8B8989" d="M155.786,230.43v3.553c0,0.422,0.097,0.748,0.291,0.979s0.487,0.347,0.88,0.347
		c0.286,0,0.557-0.065,0.809-0.203c0.254-0.137,0.486-0.323,0.698-0.564v-4.107h0.979V236h-0.584c-0.139,0-0.229-0.066-0.264-0.203
		l-0.076-0.6c-0.242,0.268-0.517,0.482-0.814,0.646c-0.301,0.164-0.646,0.245-1.034,0.245c-0.304,0-0.571-0.051-0.806-0.15
		c-0.232-0.102-0.428-0.242-0.586-0.427c-0.157-0.184-0.275-0.405-0.354-0.665c-0.079-0.261-0.118-0.549-0.118-0.863v-3.553H155.786
		L155.786,230.43z"/>
	<path fill="#8B8989" d="M161.055,236v-5.57h0.562c0.105,0,0.18,0.021,0.22,0.062c0.04,0.037,0.067,0.107,0.082,0.209l0.065,0.867
		c0.188-0.389,0.428-0.69,0.707-0.908c0.281-0.221,0.607-0.328,0.988-0.328c0.15,0,0.293,0.02,0.418,0.053
		c0.123,0.035,0.237,0.083,0.346,0.146l-0.127,0.729c-0.024,0.093-0.082,0.14-0.17,0.14c-0.051,0-0.131-0.02-0.236-0.053
		c-0.105-0.035-0.256-0.054-0.445-0.054c-0.341,0-0.626,0.101-0.855,0.297c-0.229,0.198-0.42,0.486-0.571,0.863V236H161.055z"/>
	<path fill="#8B8989" d="M168.938,233.052V236h-1.062v-7.882h2.326c0.499,0,0.933,0.058,1.301,0.174
		c0.368,0.115,0.674,0.278,0.916,0.492c0.241,0.213,0.422,0.469,0.541,0.771c0.119,0.301,0.181,0.637,0.181,1.006
		c0,0.366-0.062,0.703-0.192,1.008c-0.128,0.306-0.315,0.565-0.562,0.785c-0.246,0.223-0.556,0.395-0.922,0.518
		c-0.365,0.122-0.787,0.186-1.26,0.186L168.938,233.052L168.938,233.052z M168.938,232.205h1.267c0.305,0,0.571-0.04,0.806-0.121
		s0.43-0.193,0.588-0.338c0.155-0.146,0.274-0.318,0.355-0.521c0.08-0.201,0.121-0.423,0.121-0.664c0-0.502-0.155-0.896-0.467-1.178
		c-0.311-0.281-0.776-0.424-1.403-0.424h-1.267V232.205z"/>
	<path fill="#8B8989" d="M174.331,236v-8.102h0.979v3.275c0.235-0.253,0.502-0.453,0.791-0.605c0.289-0.151,0.623-0.229,1.002-0.229
		c0.304,0,0.569,0.052,0.806,0.151c0.231,0.101,0.427,0.242,0.583,0.429c0.154,0.187,0.273,0.408,0.354,0.668
		c0.081,0.263,0.121,0.548,0.121,0.863V236h-0.979v-3.548c0-0.421-0.098-0.748-0.289-0.981c-0.192-0.229-0.487-0.35-0.883-0.35
		c-0.291,0-0.562,0.07-0.812,0.209c-0.251,0.141-0.482,0.329-0.695,0.566V236H174.331z"/>
	<path fill="#8B8989" d="M182.702,230.341c0.407,0,0.774,0.067,1.104,0.203c0.326,0.136,0.604,0.328,0.836,0.577
		c0.229,0.25,0.402,0.552,0.524,0.904c0.123,0.354,0.187,0.75,0.187,1.187c0,0.438-0.062,0.836-0.187,1.188
		c-0.122,0.353-0.299,0.649-0.524,0.899c-0.229,0.249-0.511,0.44-0.836,0.574c-0.328,0.134-0.697,0.201-1.104,0.201
		c-0.406,0-0.774-0.067-1.103-0.201c-0.33-0.134-0.607-0.325-0.842-0.574c-0.229-0.25-0.406-0.55-0.531-0.899
		c-0.125-0.354-0.188-0.748-0.188-1.188c0-0.437,0.062-0.832,0.188-1.187c0.125-0.355,0.303-0.654,0.531-0.904
		c0.23-0.249,0.514-0.441,0.842-0.577C181.927,230.408,182.296,230.341,182.702,230.341z M182.702,235.312
		c0.551,0,0.961-0.188,1.231-0.556c0.271-0.366,0.405-0.883,0.405-1.543c0-0.663-0.136-1.181-0.405-1.551
		c-0.271-0.37-0.684-0.558-1.231-0.558c-0.278,0-0.521,0.049-0.726,0.146s-0.377,0.229-0.518,0.412
		c-0.137,0.183-0.238,0.397-0.311,0.663c-0.065,0.262-0.102,0.558-0.102,0.888s0.033,0.625,0.102,0.888
		c0.069,0.262,0.172,0.479,0.311,0.655c0.141,0.181,0.312,0.313,0.518,0.41C182.182,235.266,182.424,235.312,182.702,235.312z"/>
	<path fill="#8B8989" d="M188.252,236.088c-0.439,0-0.777-0.123-1.016-0.367c-0.235-0.246-0.354-0.601-0.354-1.062v-3.41h-0.671
		c-0.061,0-0.107-0.019-0.146-0.054c-0.041-0.033-0.062-0.09-0.062-0.161v-0.392l0.913-0.115l0.229-1.723
		c0.006-0.056,0.027-0.101,0.068-0.136c0.04-0.034,0.094-0.052,0.154-0.052h0.492v1.919h1.598v0.71h-1.598v3.344
		c0,0.235,0.06,0.409,0.173,0.521c0.11,0.113,0.261,0.172,0.438,0.172c0.104,0,0.19-0.016,0.266-0.041
		c0.076-0.028,0.143-0.061,0.195-0.092c0.055-0.032,0.104-0.062,0.143-0.092c0.037-0.025,0.07-0.041,0.102-0.041
		c0.055,0,0.1,0.029,0.141,0.094l0.285,0.469c-0.168,0.156-0.371,0.279-0.609,0.371
		C188.752,236.042,188.505,236.088,188.252,236.088z"/>
	<path fill="#8B8989" d="M192.921,230.341c0.407,0,0.774,0.067,1.104,0.203c0.328,0.136,0.604,0.328,0.836,0.577
		c0.229,0.25,0.404,0.552,0.527,0.904c0.123,0.354,0.185,0.75,0.185,1.187c0,0.438-0.062,0.836-0.185,1.188
		c-0.123,0.352-0.302,0.649-0.527,0.899c-0.229,0.249-0.508,0.44-0.836,0.574s-0.696,0.201-1.104,0.201
		c-0.405,0-0.774-0.067-1.103-0.201c-0.329-0.134-0.607-0.325-0.84-0.574c-0.229-0.25-0.408-0.55-0.533-0.899
		c-0.125-0.354-0.188-0.748-0.188-1.188c0-0.437,0.062-0.832,0.188-1.187c0.125-0.355,0.304-0.654,0.533-0.904
		c0.229-0.249,0.512-0.441,0.84-0.577S192.516,230.341,192.921,230.341z M192.921,235.312c0.552,0,0.961-0.188,1.231-0.556
		c0.271-0.366,0.408-0.883,0.408-1.543c0-0.663-0.139-1.181-0.408-1.551c-0.271-0.37-0.682-0.558-1.231-0.558
		c-0.278,0-0.521,0.049-0.726,0.146s-0.377,0.229-0.516,0.412s-0.24,0.397-0.31,0.663c-0.065,0.262-0.104,0.558-0.104,0.888
		s0.033,0.625,0.104,0.888c0.065,0.262,0.171,0.479,0.31,0.655c0.139,0.181,0.311,0.313,0.516,0.41
		C192.4,235.266,192.643,235.312,192.921,235.312z"/>
	<path fill="#8B8989" d="M198.904,236v-8.102h0.979v3.275c0.238-0.253,0.504-0.453,0.792-0.605c0.289-0.151,0.623-0.229,1.003-0.229
		c0.303,0,0.57,0.052,0.805,0.151c0.231,0.101,0.429,0.242,0.584,0.429c0.154,0.187,0.272,0.408,0.354,0.668
		c0.081,0.263,0.121,0.548,0.121,0.863V236h-0.979v-3.548c0-0.421-0.099-0.748-0.289-0.981c-0.191-0.229-0.486-0.35-0.883-0.35
		c-0.291,0-0.562,0.07-0.812,0.209c-0.251,0.141-0.481,0.329-0.695,0.566V236H198.904z"/>
	<path fill="#8B8989" d="M207.229,230.341c0.332,0,0.644,0.056,0.924,0.167c0.281,0.112,0.525,0.273,0.73,0.484
		s0.365,0.472,0.48,0.781c0.115,0.309,0.174,0.662,0.174,1.059c0,0.154-0.018,0.257-0.051,0.309
		c-0.031,0.051-0.094,0.076-0.188,0.076h-3.707c0.009,0.354,0.058,0.658,0.146,0.92c0.089,0.26,0.209,0.479,0.363,0.65
		c0.151,0.175,0.338,0.305,0.549,0.391c0.213,0.086,0.451,0.129,0.717,0.129c0.244,0,0.457-0.025,0.635-0.084
		c0.178-0.058,0.331-0.119,0.459-0.186c0.129-0.064,0.234-0.127,0.322-0.184c0.086-0.06,0.16-0.086,0.223-0.086
		c0.08,0,0.143,0.028,0.188,0.094l0.274,0.354c-0.12,0.146-0.266,0.274-0.435,0.386c-0.17,0.104-0.35,0.194-0.543,0.267
		c-0.191,0.069-0.391,0.122-0.596,0.155c-0.205,0.035-0.41,0.054-0.61,0.054c-0.386,0-0.739-0.065-1.064-0.195
		c-0.323-0.13-0.604-0.321-0.841-0.571c-0.236-0.252-0.421-0.562-0.553-0.933c-0.133-0.371-0.198-0.796-0.198-1.276
		c0-0.389,0.06-0.752,0.179-1.088c0.119-0.339,0.291-0.631,0.514-0.879c0.227-0.246,0.498-0.441,0.82-0.582
		C206.461,230.411,206.824,230.341,207.229,230.341z M207.249,231.061c-0.474,0-0.845,0.14-1.116,0.41
		c-0.271,0.273-0.439,0.651-0.506,1.137h3.03c0-0.229-0.031-0.437-0.095-0.625c-0.062-0.188-0.152-0.353-0.273-0.486
		c-0.121-0.141-0.27-0.244-0.443-0.319C207.673,231.102,207.473,231.061,207.249,231.061z"/>
	<path fill="#8B8989" d="M210.785,236v-5.57h0.562c0.104,0,0.18,0.021,0.219,0.062c0.041,0.037,0.065,0.107,0.082,0.209l0.064,0.867
		c0.188-0.389,0.43-0.69,0.707-0.908c0.28-0.221,0.607-0.328,0.987-0.328c0.151,0,0.293,0.02,0.418,0.053
		c0.124,0.035,0.237,0.083,0.347,0.146l-0.127,0.729c-0.023,0.093-0.082,0.14-0.171,0.14c-0.051,0-0.13-0.02-0.233-0.053
		c-0.106-0.035-0.258-0.054-0.445-0.054c-0.342,0-0.627,0.101-0.855,0.297c-0.229,0.198-0.421,0.486-0.574,0.863V236H210.785z"/>
	<path fill="#8B8989" d="M217.424,230.341c0.333,0,0.643,0.056,0.924,0.167c0.282,0.112,0.526,0.273,0.731,0.484
		s0.364,0.472,0.481,0.781c0.112,0.31,0.172,0.662,0.172,1.059c0,0.154-0.019,0.257-0.049,0.309
		c-0.033,0.051-0.098,0.076-0.188,0.076h-3.707c0.007,0.354,0.055,0.658,0.144,0.92c0.09,0.26,0.209,0.479,0.362,0.65
		c0.154,0.175,0.338,0.305,0.552,0.391c0.213,0.086,0.449,0.129,0.715,0.129c0.246,0,0.457-0.025,0.635-0.084
		c0.18-0.058,0.332-0.119,0.459-0.186c0.131-0.064,0.236-0.127,0.322-0.184c0.086-0.06,0.16-0.086,0.225-0.086
		c0.078,0,0.145,0.028,0.188,0.094l0.274,0.354c-0.121,0.146-0.267,0.274-0.437,0.386c-0.168,0.104-0.351,0.194-0.541,0.267
		c-0.191,0.069-0.394,0.122-0.599,0.155c-0.205,0.035-0.407,0.054-0.608,0.054c-0.387,0-0.74-0.065-1.063-0.195
		c-0.324-0.13-0.604-0.321-0.843-0.571c-0.235-0.252-0.42-0.562-0.553-0.933c-0.134-0.371-0.197-0.796-0.197-1.276
		c0-0.389,0.061-0.752,0.18-1.088c0.119-0.339,0.29-0.631,0.516-0.879c0.225-0.246,0.496-0.441,0.818-0.582
		C216.657,230.411,217.021,230.341,217.424,230.341z M217.445,231.061c-0.473,0-0.846,0.14-1.116,0.41
		c-0.271,0.273-0.44,0.651-0.506,1.137h3.03c0-0.229-0.031-0.437-0.097-0.625c-0.062-0.188-0.151-0.353-0.272-0.486
		c-0.12-0.141-0.271-0.244-0.442-0.319C217.869,231.102,217.669,231.061,217.445,231.061z"/>
</g>
<circle fill="none" stroke="#BDB9B5" stroke-width="3" stroke-miterlimit="10" cx="150" cy="150" r="50"/>
</svg>
